<!DOCTYPE svg PUBLIC "-//W3C//DTD SVG 20010904//EN" "http://www.w3.org/TR/2001/REC-SVG-20010904/DTD/svg10.dtd">
<svg version="1.0" xmlns="http://www.w3.org/2000/svg" width="32px" height="32px" viewBox="0 0 320 320" preserveAspectRatio="xMidYMid meet">
<g id="layer101" fill="#00a859" stroke="none">
 <path d="M0 306 c0 -8 3 -16 8 -18 16 -7 72 -98 72 -118 0 -48 38 -89 83 -90 26 0 117 -53 125 -72 2 -4 8 -8 13 -8 17 0 9 33 -14 64 -34 45 -43 66 -14 32 l25 -28 12 37 c44 132 -85 255 -215 205 -24 -9 -26 -12 -14 -27 8 -9 -4 -5 -26 10 -45 31 -55 33 -55 13z m215 -78 c26 -24 51 -109 27 -94 -7 4 -12 17 -12 28 0 29 -38 68 -66 68 -13 0 -26 5 -29 10 -12 20 54 10 80 -12z"/>
 <path d="M7 233 c-4 -3 -7 -38 -7 -76 0 -69 0 -70 44 -113 43 -44 44 -44 114 -44 43 0 74 5 78 12 12 19 -43 58 -82 58 -45 0 -84 37 -84 80 0 17 -10 44 -22 60 -22 31 -30 35 -41 23z"/>
 </g>
<g id="layer102" fill="#ed3237" stroke="none">
 <path d="M0 301 c0 -5 3 -11 8 -13 17 -7 82 -115 82 -136 0 -28 34 -62 63 -62 21 0 124 -62 138 -83 4 -5 9 -6 12 0 3 5 -13 37 -36 71 -23 34 -43 74 -44 89 -1 31 -35 63 -67 63 -11 0 -49 18 -84 40 -67 43 -72 45 -72 31z"/>
 <path d="M7 233 c-4 -3 -7 -38 -7 -76 0 -69 0 -70 44 -113 43 -44 44 -44 114 -44 43 0 74 5 78 12 12 19 -43 58 -82 58 -45 0 -84 37 -84 80 0 17 -10 44 -22 60 -22 31 -30 35 -41 23z"/>
 </g>
<g id="layer103" fill="#46b79f" stroke="none">
 <path d="M0 301 c0 -5 3 -11 8 -13 17 -7 82 -115 82 -136 0 -28 34 -62 63 -62 21 0 124 -62 138 -83 4 -5 9 -6 12 0 3 5 -13 37 -36 71 -23 34 -43 74 -44 89 -1 31 -35 63 -67 63 -11 0 -49 18 -84 40 -67 43 -72 45 -72 31z"/>
 </g>
<g id="layer104" fill="#00afee" stroke="none">
 <path d="M0 301 c0 -5 3 -11 8 -13 17 -7 82 -115 82 -136 0 -28 34 -62 63 -62 21 0 124 -62 138 -83 4 -5 9 -6 12 0 3 5 -13 37 -36 71 -23 34 -43 74 -44 89 -1 31 -35 63 -67 63 -11 0 -49 18 -84 40 -67 43 -72 45 -72 31z"/>
 </g>
<g id="layer105" fill="#a7ce45" stroke="none">
 <path d="M0 301 c0 -5 3 -11 8 -13 4 -1 22 -25 41 -53 19 -27 35 -51 37 -53 1 -2 13 8 27 22 l25 25 -65 40 c-69 44 -73 46 -73 32z"/>
 <path d="M202 112 c-13 -13 -22 -25 -20 -26 2 -2 26 -18 53 -36 28 -19 53 -38 56 -43 4 -6 9 -6 12 0 4 7 -65 124 -76 128 -1 1 -12 -10 -25 -23z"/>
 </g>

</svg>